<mxfile host="app.diagrams.net" agent="Mozilla/5.0 (Macintosh; Intel Mac OS X 10_15_7) AppleWebKit/537.36 (KHTML, like Gecko) Chrome/127.0.0.0 Safari/537.36" version="24.7.8">
  <diagram name="Page-1" id="v7bY_9NJ5AnYkwaDWGM3">
    <mxGraphModel dx="2363" dy="1446" grid="1" gridSize="10" guides="1" tooltips="1" connect="1" arrows="1" fold="1" page="1" pageScale="1" pageWidth="850" pageHeight="1100" math="0" shadow="0">
      <root>
        <mxCell id="0" />
        <mxCell id="1" parent="0" />
        <mxCell id="vkkkhBL2sCb2KMRIvEti-74" value="" style="rounded=0;whiteSpace=wrap;html=1;" parent="1" vertex="1">
          <mxGeometry x="-40" y="540" width="700" height="230" as="geometry" />
        </mxCell>
        <mxCell id="vkkkhBL2sCb2KMRIvEti-75" value="&lt;span&gt;&lt;font color=&quot;#ec0909&quot; style=&quot;font-size: 17px;&quot;&gt;x16 Device&lt;/font&gt;&lt;/span&gt;" style="text;html=1;align=center;verticalAlign=middle;whiteSpace=wrap;rounded=0;fontStyle=0" parent="1" vertex="1">
          <mxGeometry x="-40" y="540" width="90" height="30" as="geometry" />
        </mxCell>
        <mxCell id="vkkkhBL2sCb2KMRIvEti-72" value="" style="rounded=0;whiteSpace=wrap;html=1;" parent="1" vertex="1">
          <mxGeometry x="-40" y="290" width="700" height="230" as="geometry" />
        </mxCell>
        <mxCell id="vkkkhBL2sCb2KMRIvEti-73" value="&lt;span&gt;&lt;font color=&quot;#ec0909&quot; style=&quot;font-size: 17px;&quot;&gt;x4 Device&lt;/font&gt;&lt;/span&gt;" style="text;html=1;align=center;verticalAlign=middle;whiteSpace=wrap;rounded=0;fontStyle=0" parent="1" vertex="1">
          <mxGeometry x="-40" y="290" width="80" height="30" as="geometry" />
        </mxCell>
        <mxCell id="vkkkhBL2sCb2KMRIvEti-71" value="" style="rounded=0;whiteSpace=wrap;html=1;" parent="1" vertex="1">
          <mxGeometry x="-40" y="50" width="700" height="230" as="geometry" />
        </mxCell>
        <mxCell id="vkkkhBL2sCb2KMRIvEti-11" value="ECC Check Bit Generator" style="rounded=0;whiteSpace=wrap;html=1;fillColor=#dae8fc;strokeColor=#6c8ebf;fontStyle=1;fontSize=14;" parent="1" vertex="1">
          <mxGeometry x="300" y="440" width="120" height="60" as="geometry" />
        </mxCell>
        <mxCell id="vkkkhBL2sCb2KMRIvEti-12" value="Memory Data Array" style="rounded=0;whiteSpace=wrap;html=1;fillColor=#ffe6cc;strokeColor=#d79b00;fontSize=14;fontStyle=1" parent="1" vertex="1">
          <mxGeometry x="530" y="305" width="120" height="120" as="geometry" />
        </mxCell>
        <mxCell id="vkkkhBL2sCb2KMRIvEti-13" value="ECC Check Bit Array" style="rounded=0;whiteSpace=wrap;html=1;fillColor=#d5e8d4;strokeColor=#82b366;fontSize=14;fontStyle=1" parent="1" vertex="1">
          <mxGeometry x="530" y="440" width="120" height="60" as="geometry" />
        </mxCell>
        <mxCell id="vkkkhBL2sCb2KMRIvEti-17" value="&lt;span&gt;&lt;font style=&quot;font-size: 17px;&quot;&gt;64 bits&lt;/font&gt;&lt;/span&gt;" style="text;html=1;align=center;verticalAlign=middle;whiteSpace=wrap;rounded=0;fontStyle=0" parent="1" vertex="1">
          <mxGeometry x="-30" y="435" width="70" height="30" as="geometry" />
        </mxCell>
        <mxCell id="vkkkhBL2sCb2KMRIvEti-18" value="&lt;span&gt;&lt;font style=&quot;font-size: 17px;&quot;&gt;128 bits&lt;/font&gt;&lt;/span&gt;" style="text;html=1;align=center;verticalAlign=middle;whiteSpace=wrap;rounded=0;fontStyle=0" parent="1" vertex="1">
          <mxGeometry x="420" y="364" width="90" height="30" as="geometry" />
        </mxCell>
        <mxCell id="vkkkhBL2sCb2KMRIvEti-19" value="&lt;span&gt;&lt;font style=&quot;font-size: 17px;&quot;&gt;8 bits&lt;/font&gt;&lt;/span&gt;" style="text;html=1;align=center;verticalAlign=middle;whiteSpace=wrap;rounded=0;fontStyle=0" parent="1" vertex="1">
          <mxGeometry x="430" y="456" width="70" height="30" as="geometry" />
        </mxCell>
        <mxCell id="vkkkhBL2sCb2KMRIvEti-22" value="" style="endArrow=classic;html=1;rounded=0;strokeWidth=4;" parent="1" edge="1">
          <mxGeometry width="50" height="50" relative="1" as="geometry">
            <mxPoint x="40" y="450" as="sourcePoint" />
            <mxPoint x="80" y="450" as="targetPoint" />
          </mxGeometry>
        </mxCell>
        <mxCell id="vkkkhBL2sCb2KMRIvEti-23" value="" style="endArrow=none;html=1;rounded=0;strokeWidth=4;" parent="1" edge="1">
          <mxGeometry width="50" height="50" relative="1" as="geometry">
            <mxPoint x="40" y="450" as="sourcePoint" />
            <mxPoint x="40" y="340" as="targetPoint" />
          </mxGeometry>
        </mxCell>
        <mxCell id="vkkkhBL2sCb2KMRIvEti-24" value="" style="endArrow=none;html=1;rounded=0;strokeWidth=4;exitX=-0.008;exitY=0.067;exitDx=0;exitDy=0;exitPerimeter=0;" parent="1" edge="1">
          <mxGeometry width="50" height="50" relative="1" as="geometry">
            <mxPoint x="529.04" y="339.99999999999994" as="sourcePoint" />
            <mxPoint x="40" y="341.96" as="targetPoint" />
          </mxGeometry>
        </mxCell>
        <mxCell id="vkkkhBL2sCb2KMRIvEti-25" value="&lt;span&gt;&lt;font style=&quot;font-size: 17px;&quot;&gt;64 bits&lt;/font&gt;&lt;/span&gt;" style="text;html=1;align=center;verticalAlign=middle;whiteSpace=wrap;rounded=0;fontStyle=0" parent="1" vertex="1">
          <mxGeometry x="-30" y="475" width="70" height="30" as="geometry" />
        </mxCell>
        <mxCell id="vkkkhBL2sCb2KMRIvEti-26" value="" style="endArrow=classic;html=1;rounded=0;strokeWidth=4;" parent="1" edge="1">
          <mxGeometry width="50" height="50" relative="1" as="geometry">
            <mxPoint x="40" y="489.71" as="sourcePoint" />
            <mxPoint x="80" y="489.71" as="targetPoint" />
          </mxGeometry>
        </mxCell>
        <mxCell id="vkkkhBL2sCb2KMRIvEti-27" value="" style="html=1;verticalLabelPosition=bottom;align=center;labelBackgroundColor=#ffffff;verticalAlign=top;strokeWidth=2;strokeColor=#0c0d0d;shadow=0;dashed=0;shape=mxgraph.ios7.icons.add;" parent="1" vertex="1">
          <mxGeometry x="80" y="450" width="40" height="40" as="geometry" />
        </mxCell>
        <mxCell id="vkkkhBL2sCb2KMRIvEti-28" value="&lt;span&gt;&lt;font style=&quot;font-size: 17px;&quot;&gt;128 bits&lt;/font&gt;&lt;/span&gt;" style="text;html=1;align=center;verticalAlign=middle;whiteSpace=wrap;rounded=0;fontStyle=0" parent="1" vertex="1">
          <mxGeometry x="120" y="444" width="70" height="30" as="geometry" />
        </mxCell>
        <mxCell id="vkkkhBL2sCb2KMRIvEti-29" value="" style="endArrow=classic;html=1;rounded=0;strokeWidth=4;entryX=0;entryY=0.5;entryDx=0;entryDy=0;" parent="1" target="vkkkhBL2sCb2KMRIvEti-11" edge="1">
          <mxGeometry width="50" height="50" relative="1" as="geometry">
            <mxPoint x="120" y="469.71" as="sourcePoint" />
            <mxPoint x="160" y="469.71" as="targetPoint" />
          </mxGeometry>
        </mxCell>
        <mxCell id="vkkkhBL2sCb2KMRIvEti-30" value="" style="endArrow=classic;html=1;rounded=0;strokeWidth=4;entryX=0;entryY=0.5;entryDx=0;entryDy=0;exitX=1;exitY=0.5;exitDx=0;exitDy=0;" parent="1" edge="1">
          <mxGeometry width="50" height="50" relative="1" as="geometry">
            <mxPoint x="420" y="482" as="sourcePoint" />
            <mxPoint x="530" y="482" as="targetPoint" />
          </mxGeometry>
        </mxCell>
        <mxCell id="vkkkhBL2sCb2KMRIvEti-31" value="" style="endArrow=classic;html=1;rounded=0;strokeWidth=4;entryX=0;entryY=0.5;entryDx=0;entryDy=0;" parent="1" edge="1">
          <mxGeometry width="50" height="50" relative="1" as="geometry">
            <mxPoint x="240" y="390" as="sourcePoint" />
            <mxPoint x="530" y="390" as="targetPoint" />
          </mxGeometry>
        </mxCell>
        <mxCell id="vkkkhBL2sCb2KMRIvEti-32" value="" style="endArrow=none;html=1;rounded=0;strokeWidth=4;" parent="1" edge="1">
          <mxGeometry width="50" height="50" relative="1" as="geometry">
            <mxPoint x="240" y="470" as="sourcePoint" />
            <mxPoint x="240" y="390" as="targetPoint" />
          </mxGeometry>
        </mxCell>
        <mxCell id="vkkkhBL2sCb2KMRIvEti-33" value="ECC Check Bit Generator" style="rounded=0;whiteSpace=wrap;html=1;fillColor=#dae8fc;strokeColor=#6c8ebf;fontStyle=1;fontSize=14;" parent="1" vertex="1">
          <mxGeometry x="300" y="205" width="120" height="60" as="geometry" />
        </mxCell>
        <mxCell id="vkkkhBL2sCb2KMRIvEti-34" value="Memory Data Array" style="rounded=0;whiteSpace=wrap;html=1;fillColor=#ffe6cc;strokeColor=#d79b00;fontSize=14;fontStyle=1" parent="1" vertex="1">
          <mxGeometry x="530" y="70" width="120" height="120" as="geometry" />
        </mxCell>
        <mxCell id="vkkkhBL2sCb2KMRIvEti-35" value="ECC Check Bit Array" style="rounded=0;whiteSpace=wrap;html=1;fillColor=#d5e8d4;strokeColor=#82b366;fontSize=14;fontStyle=1" parent="1" vertex="1">
          <mxGeometry x="530" y="205" width="120" height="60" as="geometry" />
        </mxCell>
        <mxCell id="vkkkhBL2sCb2KMRIvEti-37" value="&lt;span&gt;&lt;font style=&quot;font-size: 17px;&quot;&gt;128 bits&lt;/font&gt;&lt;/span&gt;" style="text;html=1;align=center;verticalAlign=middle;whiteSpace=wrap;rounded=0;fontStyle=0" parent="1" vertex="1">
          <mxGeometry x="420" y="100" width="90" height="30" as="geometry" />
        </mxCell>
        <mxCell id="vkkkhBL2sCb2KMRIvEti-38" value="&lt;span&gt;&lt;font style=&quot;font-size: 17px;&quot;&gt;8 bits&lt;/font&gt;&lt;/span&gt;" style="text;html=1;align=center;verticalAlign=middle;whiteSpace=wrap;rounded=0;fontStyle=0" parent="1" vertex="1">
          <mxGeometry x="430" y="209" width="70" height="30" as="geometry" />
        </mxCell>
        <mxCell id="vkkkhBL2sCb2KMRIvEti-45" value="&lt;span&gt;&lt;font style=&quot;font-size: 17px;&quot;&gt;128 bits&lt;/font&gt;&lt;/span&gt;" style="text;html=1;align=center;verticalAlign=middle;whiteSpace=wrap;rounded=0;fontStyle=0" parent="1" vertex="1">
          <mxGeometry x="120" y="207" width="70" height="30" as="geometry" />
        </mxCell>
        <mxCell id="vkkkhBL2sCb2KMRIvEti-46" value="" style="endArrow=classic;html=1;rounded=0;strokeWidth=4;entryX=0;entryY=0.5;entryDx=0;entryDy=0;" parent="1" target="vkkkhBL2sCb2KMRIvEti-33" edge="1">
          <mxGeometry width="50" height="50" relative="1" as="geometry">
            <mxPoint x="120" y="234.70999999999998" as="sourcePoint" />
            <mxPoint x="160" y="234.70999999999998" as="targetPoint" />
          </mxGeometry>
        </mxCell>
        <mxCell id="vkkkhBL2sCb2KMRIvEti-47" value="" style="endArrow=classic;html=1;rounded=0;strokeWidth=4;entryX=0;entryY=0.5;entryDx=0;entryDy=0;exitX=1;exitY=0.5;exitDx=0;exitDy=0;" parent="1" source="vkkkhBL2sCb2KMRIvEti-33" target="vkkkhBL2sCb2KMRIvEti-35" edge="1">
          <mxGeometry width="50" height="50" relative="1" as="geometry">
            <mxPoint x="350" y="230" as="sourcePoint" />
            <mxPoint x="530" y="230.29000000000002" as="targetPoint" />
          </mxGeometry>
        </mxCell>
        <mxCell id="vkkkhBL2sCb2KMRIvEti-48" value="" style="endArrow=classic;html=1;rounded=0;strokeWidth=4;entryX=0;entryY=0.5;entryDx=0;entryDy=0;" parent="1" edge="1">
          <mxGeometry width="50" height="50" relative="1" as="geometry">
            <mxPoint x="240" y="129.66" as="sourcePoint" />
            <mxPoint x="530" y="129.66" as="targetPoint" />
          </mxGeometry>
        </mxCell>
        <mxCell id="vkkkhBL2sCb2KMRIvEti-49" value="" style="endArrow=none;html=1;rounded=0;strokeWidth=4;" parent="1" edge="1">
          <mxGeometry width="50" height="50" relative="1" as="geometry">
            <mxPoint x="240" y="235" as="sourcePoint" />
            <mxPoint x="240" y="130" as="targetPoint" />
          </mxGeometry>
        </mxCell>
        <mxCell id="vkkkhBL2sCb2KMRIvEti-50" value="ECC Check Bit Generator" style="rounded=0;whiteSpace=wrap;html=1;fillColor=#dae8fc;strokeColor=#6c8ebf;fontStyle=1;fontSize=14;" parent="1" vertex="1">
          <mxGeometry x="300" y="693" width="120" height="60" as="geometry" />
        </mxCell>
        <mxCell id="vkkkhBL2sCb2KMRIvEti-51" value="Memory Data Array" style="rounded=0;whiteSpace=wrap;html=1;fillColor=#ffe6cc;strokeColor=#d79b00;fontSize=14;fontStyle=1" parent="1" vertex="1">
          <mxGeometry x="530" y="558" width="120" height="120" as="geometry" />
        </mxCell>
        <mxCell id="vkkkhBL2sCb2KMRIvEti-52" value="ECC Check Bit Array" style="rounded=0;whiteSpace=wrap;html=1;fillColor=#d5e8d4;strokeColor=#82b366;fontSize=14;fontStyle=1" parent="1" vertex="1">
          <mxGeometry x="530" y="693" width="120" height="60" as="geometry" />
        </mxCell>
        <mxCell id="vkkkhBL2sCb2KMRIvEti-53" value="&lt;span&gt;&lt;font style=&quot;font-size: 17px;&quot;&gt;128 bits&lt;/font&gt;&lt;/span&gt;" style="text;html=1;align=center;verticalAlign=middle;whiteSpace=wrap;rounded=0;fontStyle=0" parent="1" vertex="1">
          <mxGeometry x="420" y="617" width="90" height="30" as="geometry" />
        </mxCell>
        <mxCell id="vkkkhBL2sCb2KMRIvEti-54" value="&lt;span&gt;&lt;font style=&quot;font-size: 17px;&quot;&gt;8 bits&lt;/font&gt;&lt;/span&gt;" style="text;html=1;align=center;verticalAlign=middle;whiteSpace=wrap;rounded=0;fontStyle=0" parent="1" vertex="1">
          <mxGeometry x="430" y="686" width="70" height="30" as="geometry" />
        </mxCell>
        <mxCell id="vkkkhBL2sCb2KMRIvEti-55" value="&lt;span&gt;&lt;font style=&quot;font-size: 17px;&quot;&gt;256 bits&lt;/font&gt;&lt;/span&gt;" style="text;html=1;align=center;verticalAlign=middle;whiteSpace=wrap;rounded=0;fontStyle=0" parent="1" vertex="1">
          <mxGeometry x="120" y="693" width="70" height="30" as="geometry" />
        </mxCell>
        <mxCell id="vkkkhBL2sCb2KMRIvEti-56" value="" style="endArrow=classic;html=1;rounded=0;strokeWidth=4;entryX=0;entryY=0.5;entryDx=0;entryDy=0;" parent="1" target="vkkkhBL2sCb2KMRIvEti-50" edge="1">
          <mxGeometry width="50" height="50" relative="1" as="geometry">
            <mxPoint x="120" y="722.71" as="sourcePoint" />
            <mxPoint x="160" y="722.71" as="targetPoint" />
          </mxGeometry>
        </mxCell>
        <mxCell id="vkkkhBL2sCb2KMRIvEti-57" value="" style="endArrow=classic;html=1;rounded=0;strokeWidth=4;entryX=0;entryY=0.5;entryDx=0;entryDy=0;exitX=1;exitY=0.5;exitDx=0;exitDy=0;" parent="1" edge="1">
          <mxGeometry width="50" height="50" relative="1" as="geometry">
            <mxPoint x="420" y="712" as="sourcePoint" />
            <mxPoint x="530" y="712" as="targetPoint" />
          </mxGeometry>
        </mxCell>
        <mxCell id="vkkkhBL2sCb2KMRIvEti-58" value="" style="endArrow=classic;html=1;rounded=0;strokeWidth=4;entryX=0;entryY=0.5;entryDx=0;entryDy=0;" parent="1" edge="1">
          <mxGeometry width="50" height="50" relative="1" as="geometry">
            <mxPoint x="240" y="643" as="sourcePoint" />
            <mxPoint x="530" y="643" as="targetPoint" />
          </mxGeometry>
        </mxCell>
        <mxCell id="vkkkhBL2sCb2KMRIvEti-59" value="" style="endArrow=none;html=1;rounded=0;strokeWidth=4;" parent="1" edge="1">
          <mxGeometry width="50" height="50" relative="1" as="geometry">
            <mxPoint x="240" y="723" as="sourcePoint" />
            <mxPoint x="240" y="588" as="targetPoint" />
          </mxGeometry>
        </mxCell>
        <mxCell id="vkkkhBL2sCb2KMRIvEti-60" value="&lt;span&gt;&lt;font style=&quot;font-size: 17px;&quot;&gt;8 bits&lt;/font&gt;&lt;/span&gt;" style="text;html=1;align=center;verticalAlign=middle;whiteSpace=wrap;rounded=0;fontStyle=0" parent="1" vertex="1">
          <mxGeometry x="430" y="718" width="70" height="30" as="geometry" />
        </mxCell>
        <mxCell id="vkkkhBL2sCb2KMRIvEti-61" value="" style="endArrow=classic;html=1;rounded=0;strokeWidth=4;entryX=0;entryY=0.5;entryDx=0;entryDy=0;exitX=1;exitY=0.5;exitDx=0;exitDy=0;" parent="1" edge="1">
          <mxGeometry width="50" height="50" relative="1" as="geometry">
            <mxPoint x="420" y="744" as="sourcePoint" />
            <mxPoint x="530" y="744" as="targetPoint" />
          </mxGeometry>
        </mxCell>
        <mxCell id="vkkkhBL2sCb2KMRIvEti-62" value="" style="endArrow=classic;html=1;rounded=0;strokeWidth=4;entryX=0;entryY=0.5;entryDx=0;entryDy=0;" parent="1" edge="1">
          <mxGeometry width="50" height="50" relative="1" as="geometry">
            <mxPoint x="240" y="591" as="sourcePoint" />
            <mxPoint x="530" y="591" as="targetPoint" />
          </mxGeometry>
        </mxCell>
        <mxCell id="vkkkhBL2sCb2KMRIvEti-63" value="&lt;span&gt;&lt;font style=&quot;font-size: 17px;&quot;&gt;128 bits&lt;/font&gt;&lt;/span&gt;" style="text;html=1;align=center;verticalAlign=middle;whiteSpace=wrap;rounded=0;fontStyle=0" parent="1" vertex="1">
          <mxGeometry x="420" y="564" width="90" height="30" as="geometry" />
        </mxCell>
        <mxCell id="vkkkhBL2sCb2KMRIvEti-64" value="ECC Checker" style="rounded=0;whiteSpace=wrap;html=1;fillColor=#dae8fc;strokeColor=#6c8ebf;fontStyle=1;fontSize=14;" parent="1" vertex="1">
          <mxGeometry x="240" y="330" width="120" height="40" as="geometry" />
        </mxCell>
        <mxCell id="vkkkhBL2sCb2KMRIvEti-65" value="" style="endArrow=classic;html=1;rounded=0;strokeWidth=4;entryX=0;entryY=0.5;entryDx=0;entryDy=0;" parent="1" edge="1">
          <mxGeometry width="50" height="50" relative="1" as="geometry">
            <mxPoint x="400" y="360" as="sourcePoint" />
            <mxPoint x="360" y="360" as="targetPoint" />
          </mxGeometry>
        </mxCell>
        <mxCell id="vkkkhBL2sCb2KMRIvEti-66" value="" style="endArrow=none;html=1;rounded=0;strokeWidth=4;" parent="1" edge="1">
          <mxGeometry width="50" height="50" relative="1" as="geometry">
            <mxPoint x="400" y="420" as="sourcePoint" />
            <mxPoint x="400" y="360" as="targetPoint" />
          </mxGeometry>
        </mxCell>
        <mxCell id="vkkkhBL2sCb2KMRIvEti-67" value="" style="endArrow=none;html=1;rounded=0;strokeWidth=4;" parent="1" edge="1">
          <mxGeometry width="50" height="50" relative="1" as="geometry">
            <mxPoint x="488" y="420" as="sourcePoint" />
            <mxPoint x="398" y="420.31" as="targetPoint" />
          </mxGeometry>
        </mxCell>
        <mxCell id="vkkkhBL2sCb2KMRIvEti-68" value="" style="endArrow=none;html=1;rounded=0;strokeWidth=4;" parent="1" edge="1">
          <mxGeometry width="50" height="50" relative="1" as="geometry">
            <mxPoint x="530" y="456" as="sourcePoint" />
            <mxPoint x="490" y="456" as="targetPoint" />
          </mxGeometry>
        </mxCell>
        <mxCell id="vkkkhBL2sCb2KMRIvEti-69" value="" style="endArrow=none;html=1;rounded=0;strokeWidth=4;" parent="1" edge="1">
          <mxGeometry width="50" height="50" relative="1" as="geometry">
            <mxPoint x="490" y="458" as="sourcePoint" />
            <mxPoint x="490" y="418" as="targetPoint" />
          </mxGeometry>
        </mxCell>
        <mxCell id="vkkkhBL2sCb2KMRIvEti-70" value="&lt;span&gt;&lt;font color=&quot;#ec0909&quot; style=&quot;font-size: 17px;&quot;&gt;x8 Device&lt;/font&gt;&lt;/span&gt;" style="text;html=1;align=center;verticalAlign=middle;whiteSpace=wrap;rounded=0;fontStyle=0" parent="1" vertex="1">
          <mxGeometry x="-40" y="50" width="80" height="30" as="geometry" />
        </mxCell>
        <mxCell id="jNpfXrITSN1EHUMc0UQi-1" value="&lt;span&gt;&lt;font style=&quot;font-size: 17px;&quot;&gt;64 bits&lt;/font&gt;&lt;/span&gt;" style="text;html=1;align=center;verticalAlign=middle;whiteSpace=wrap;rounded=0;fontStyle=0" vertex="1" parent="1">
          <mxGeometry x="400" y="395" width="90" height="30" as="geometry" />
        </mxCell>
      </root>
    </mxGraphModel>
  </diagram>
</mxfile>
